<?xml version="1.0" encoding="utf-8"?>
<svg width="861.23047px" height="64.13965px" viewBox="0 0 861.23047 64.13965" version="1.1" xmlns:xlink="http://www.w3.org/1999/xlink" xmlns="http://www.w3.org/2000/svg">
  <defs>
    <linearGradient gradientUnits="objectBoundingBox" x1="0.5" y1="0" x2="0.5" y2="1" id="gradient_1">
      <stop offset="0%" stop-color="#8BC4DD" />
      <stop offset="50.48471%" stop-color="#3585A5" />
      <stop offset="51.55005%" stop-color="#0B719C" />
      <stop offset="100%" stop-color="#69A9C9" />
    </linearGradient>
    <radialGradient gradientUnits="objectBoundingBox" cx="50%" cy="0%" fx="50%" fy="0%" r="49.999996%" gradientTransform="translate(0.5,0),scale(0.07444091,1),rotate(89.99918),scale(1,6.8407087),translate(-0.5,-0)" id="gradient_2">
      <stop offset="0%" stop-color="#96FCFF" />
      <stop offset="100%" stop-color="#62BAC8" stop-opacity="0" />
    </radialGradient>
    <linearGradient gradientUnits="objectBoundingBox" x1="-7.9445105" y1="-0.54514563" x2="-7.9445105" y2="3.876113" id="gradient_3">
      <stop offset="0%" stop-color="#FFFFFF" />
      <stop offset="53.08642%" stop-color="#FFFFFF" stop-opacity="0.34901962" />
      <stop offset="57.22442%" stop-color="#DBDBDB" />
      <stop offset="100%" stop-color="#FFEEEE" />
    </linearGradient>
    <linearGradient gradientUnits="objectBoundingBox" x1="0.5000112" y1="0" x2="0.5000121" y2="1" id="gradient_4">
      <stop offset="0%" stop-color="#FFFFFF" />
      <stop offset="100%" stop-color="#FFFFFF" stop-opacity="0.2901961" />
    </linearGradient>
    <linearGradient gradientUnits="objectBoundingBox" x1="0.5" y1="0" x2="0.5" y2="1" id="gradient_5">
      <stop offset="0%" stop-color="#FFFFFF" />
      <stop offset="100%" stop-color="#FFFFFF" stop-opacity="0.69411767" />
    </linearGradient>
    <filter filterUnits="userSpaceOnUse" color-interpolation-filters="sRGB" id="filter_1">
      <feFlood flood-opacity="0" result="BackgroundImageFix" />
      <feColorMatrix in="SourceAlpha" type="matrix" values="0 0 0 0 0 0 0 0 0 0 0 0 0 0 0 0 0 0 128 0" />
      <feOffset dx="0" dy="2" />
      <feGaussianBlur stdDeviation="2" />
      <feColorMatrix type="matrix" values="0 0 0 0 0.95686275 0 0 0 0 0.972549 0 0 0 0 0.98039216 0 0 0 0.4 0" />
      <feBlend mode="normal" in2="BackgroundImageFix" result="effect0_dropShadow" />
      <feBlend mode="normal" in="SourceGraphic" in2="effect0_dropShadow" result="shape" />
    </filter>
    <filter filterUnits="userSpaceOnUse" color-interpolation-filters="sRGB" id="filter_2">
      <feFlood flood-opacity="0" result="BackgroundImageFix" />
      <feColorMatrix in="SourceAlpha" type="matrix" values="0 0 0 0 0 0 0 0 0 0 0 0 0 0 0 0 0 0 128 0" />
      <feOffset dx="0" dy="2" />
      <feGaussianBlur stdDeviation="2" />
      <feColorMatrix type="matrix" values="0 0 0 0 0.39215687 0 0 0 0 0.39215687 0 0 0 0 0.39215687 0 0 0 0.49803922 0" />
      <feBlend mode="normal" in2="BackgroundImageFix" result="effect0_dropShadow" />
      <feBlend mode="normal" in="SourceGraphic" in2="effect0_dropShadow" result="shape" />
    </filter>
    <path d="M430.615 0L861.23 0L861.23 64.1396L0 64.1396L0 0L430.615 0Z" id="path_1" />
    <path d="M861.22 0L861.22 0L861.22 54.11C861.22 59.6336 856.744 64.11 851.22 64.11L10 64.11C4.4764 64.11 0 59.6336 0 54.11L0 0L861.22 0Z" id="path_2" />
    <path d="M51.7593 6.98049L31.3593 6.98049C28.4995 6.97518 25.755 8.10753 23.7309 10.1279C21.7068 12.1482 20.5693 14.8906 20.5693 17.7505L20.5693 38.1805C20.5693 41.0404 21.7068 43.7828 23.7309 45.8031C25.755 47.8235 28.4995 48.9558 31.3594 48.9505L51.7593 48.9505C57.7074 48.9505 62.5293 44.1286 62.5293 38.1805L62.5293 17.7505C62.5293 11.8024 57.7074 6.98049 51.7593 6.98049L51.7593 6.98049ZM41.7593 42.1805C35.9887 42.2698 30.7364 38.8624 28.466 33.5564C26.1955 28.2505 27.3572 22.0985 31.4062 17.9858C35.4552 13.8732 41.5884 12.6157 46.9291 14.8032C52.2698 16.9907 55.7586 22.1892 55.7593 27.9605C55.7912 31.702 54.3349 35.3026 51.7109 37.9696C49.0869 40.6367 45.5105 42.1515 41.7692 42.1805L41.7593 42.1805Z" id="path_3" />
    <clipPath id="clip_1">
      <use xlink:href="#path_1" clip-rule="evenodd" fill-rule="evenodd" />
    </clipPath>
    <clipPath id="clip_2">
      <use xlink:href="#path_2" />
    </clipPath>
    <clipPath id="clip_3">
      <use xlink:href="#path_3" />
    </clipPath>
  </defs>
  <g id="header" clip-path="url(#clip_1)">
    <path d="M430.615 0L861.23 0L861.23 64.1396L0 64.1396L0 0L430.615 0Z" id="header" fill="none" stroke="none" />
    <g id="Группа" transform="translate(0.49023438 -0.859375)">
      <g id="Прямоугольник-16">
        <use stroke="none" fill="url(#gradient_1)" xlink:href="#path_2" />
        <use stroke="none" fill="url(#gradient_2)" xlink:href="#path_2" />
        <g clip-path="url(#clip_2)">
          <use xlink:href="#path_2" fill="none" stroke="#3B8EB3" stroke-width="2" />
        </g>
      </g>
      <g id="Фигура" filter="url(#filter_1)">
        <use stroke="none" fill="url(#gradient_3)" xlink:href="#path_3" fill-rule="evenodd" />
        <g clip-path="url(#clip_3)">
          <use xlink:href="#path_3" fill="none" stroke="url(#gradient_4)" stroke-width="2" />
        </g>
        <use xlink:href="#path_3" fill="none" stroke="#D0DEE4" stroke-width="1" />
      </g>
      <path d="M34.999 28.1901C34.999 23.457 38.0301 19.6201 41.769 19.6201C45.508 19.6201 48.539 23.457 48.539 28.1901C48.539 32.9232 45.508 36.7601 41.769 36.7601C38.0301 36.7601 34.999 32.9232 34.999 28.1901Z" id="Овал" fill="url(#gradient_3)" fill-rule="evenodd" stroke="none" filter="url(#filter_2)" />
      <path d="M66.6192 49.4001L66.6192 26.6201C66.6192 23.9801 66.5392 21.8401 66.4492 19.9201L66.4492 19.4501L70.7092 19.4501L70.8392 22.2101C72.5323 20.0894 75.127 18.8921 77.8392 18.9801C83.1592 18.9801 87.0192 23.5701 87.0192 29.9001C87.0192 37.9001 82.0892 41.4301 77.1992 41.4301C74.9447 41.499 72.7658 40.6129 71.1992 38.9901L71.1992 49.4001L66.6192 49.4001ZM76.6992 22.8601C74.178 22.9386 72.028 24.7103 71.4692 27.1701C71.3267 27.6273 71.246 28.1015 71.2292 28.5801L71.2292 32.0801C71.2266 32.5798 71.2701 33.0786 71.3592 33.5702C71.9645 35.9335 74.0997 37.5823 76.5392 37.5702C80.1492 37.5901 82.3592 34.7101 82.3592 30.0801C82.3592 26.4801 80.6192 22.8601 76.6992 22.8601L76.6992 22.8601Z" id="Фигура" fill="url(#gradient_3)" fill-rule="evenodd" stroke="none" filter="url(#filter_2)" />
      <path d="M77.849 19.4305C82.849 19.4305 86.579 23.6405 86.579 29.9005C86.579 37.3205 82.059 40.9806 77.209 40.9806C74.67 41.0917 72.2591 39.8615 70.859 37.7405L70.779 37.7405L70.779 48.9505L67.069 48.9505L67.069 26.6205C67.069 23.9805 66.989 21.8605 66.899 19.9005L70.259 19.9005L70.429 23.4305L70.519 23.4305C72.0338 20.8435 74.8537 19.3047 77.849 19.4305M76.569 38.0805C80.569 38.0805 82.829 34.8405 82.829 30.0805C82.829 25.9505 80.659 22.4205 76.699 22.4205C73.9686 22.5021 71.6378 24.4176 71.029 27.0805C70.8798 27.5776 70.7958 28.0919 70.779 28.6105L70.779 32.0805C70.7863 32.5948 70.8433 33.1072 70.949 33.6105C71.5573 36.2247 73.885 38.0761 76.569 38.0805M77.849 18.5705C75.3915 18.4823 73.0019 19.387 71.219 21.0805L71.159 19.8505L71.159 18.9905L65.959 18.9905L65.959 19.9305C66.049 21.8505 66.129 23.9805 66.129 26.6105L66.129 49.8605L71.639 49.8605L71.639 40.0805C73.215 41.3143 75.1678 41.9676 77.169 41.9305C82.169 41.9305 87.439 38.1805 87.439 29.9305C87.439 23.3405 83.389 18.5605 77.809 18.5605L77.849 18.5705ZM71.849 33.4905C71.7447 33.0275 71.6877 32.5551 71.679 32.0805L71.679 28.5805C71.6939 28.1426 71.768 27.7087 71.899 27.2905C72.3993 25.0184 74.3739 23.3729 76.699 23.2905C80.309 23.2905 81.929 26.6805 81.929 30.0405C81.929 34.4005 79.869 37.1105 76.569 37.1105C74.3282 37.1175 72.3719 35.5945 71.829 33.4205L71.849 33.4905Z" id="Фигура" fill="url(#gradient_3)" fill-rule="evenodd" stroke="none" filter="url(#filter_2)" />
      <path d="M99.9594 41.3905C93.5294 41.3905 89.3594 37.1305 89.3594 30.5405C89.3594 23.7405 93.5194 18.9805 99.4794 18.9805C106.099 18.9805 108.479 24.4605 108.479 29.1405C108.477 29.6657 108.44 30.1901 108.369 30.7105L108.309 31.3305L93.8794 31.3305C94.1894 36.9705 98.5694 37.5905 100.479 37.5905C102.373 37.6589 104.259 37.3178 106.009 36.5905L106.499 36.3805L107.349 39.9405L106.999 40.0905C104.772 41.0186 102.372 41.4618 99.9594 41.3905L99.9594 41.3905ZM103.959 27.7505C103.956 26.2819 103.428 24.8631 102.469 23.7504C101.602 22.9098 100.426 22.4648 99.2193 22.5204C95.8293 22.5204 94.3893 25.5804 93.9893 27.7104L103.959 27.7505Z" id="Фигура" fill="url(#gradient_3)" fill-rule="evenodd" stroke="none" filter="url(#filter_2)" />
      <path d="M99.4995 19.4304C106.229 19.4304 108.02 25.3504 108.02 29.1404C108.011 29.7224 107.968 30.3034 107.89 30.8803L93.4095 30.8803C93.4895 35.9503 96.7295 38.0403 100.479 38.0403C102.434 38.1001 104.378 37.7386 106.179 36.9803L106.819 39.6603C104.648 40.5632 102.311 40.9994 99.9595 40.9403C93.6195 40.9403 89.8295 36.7603 89.8295 30.5403C89.8295 24.3203 93.4895 19.4303 99.4995 19.4303M93.4995 28.2003L104.499 28.2003C104.499 25.8203 103.499 22.1103 99.2995 22.1103C95.5095 22.1103 93.8495 25.6003 93.5495 28.2003M99.5495 18.5303C93.3295 18.5303 88.9795 23.4703 88.9795 30.5303C88.9795 37.4003 93.3095 41.8403 99.9795 41.8403C102.458 41.8986 104.921 41.4353 107.209 40.4803L107.889 40.1703L107.719 39.4403L107.079 36.7603L106.829 35.7603L105.829 36.1703C104.139 36.8857 102.314 37.2268 100.479 37.1703C98.7595 37.1703 94.8795 36.6303 94.3695 31.8203L108.699 31.8203L108.789 31.0103L108.789 30.7903C108.861 30.2532 108.898 29.7121 108.899 29.1703C108.899 23.8903 105.989 18.5603 99.4795 18.5603L99.5495 18.5303ZM94.5495 27.3003C95.0395 25.3803 96.3995 23.0203 99.2195 23.0203C100.294 22.9592 101.346 23.3426 102.129 24.0804C102.908 24.9705 103.375 26.0906 103.459 27.2704L94.5495 27.3003Z" id="Фигура" fill="url(#gradient_3)" fill-rule="evenodd" stroke="none" filter="url(#filter_2)" />
      <path d="M126.02 40.9604L126.02 28.6304C126.02 26.0604 125.27 22.9804 121.7 22.9804C119.56 23.0152 117.693 24.4436 117.1 26.5004C116.936 27.0243 116.858 27.5714 116.87 28.1204L116.87 40.9604L112.22 40.9604L112.22 25.4804C112.22 23.1404 112.22 21.4804 112.05 19.9404L112.05 19.4504L116.28 19.4504L116.36 22.0804C117.952 20.1127 120.359 18.9847 122.89 19.0204C124.18 19.0204 130.63 19.4704 130.63 28.2404L130.63 40.9604L126.02 40.9604Z" id="Фигура" fill="url(#gradient_3)" stroke="none" filter="url(#filter_2)" />
      <path d="M122.929 19.4303C125.789 19.4303 130.219 21.1303 130.219 28.2003L130.219 40.5103L126.469 40.5103L126.469 28.6303C126.469 25.3103 125.229 22.5303 121.699 22.5303C119.373 22.5817 117.349 24.1361 116.699 26.3703C116.521 26.936 116.437 27.5272 116.449 28.1203L116.449 40.5103L112.699 40.5103L112.699 25.5103C112.699 23.3803 112.699 21.6303 112.529 19.9303L115.849 19.9303L116.059 23.3303L116.149 23.3303C117.524 20.8749 120.147 19.3843 122.959 19.4603M122.959 18.5603C120.676 18.5184 118.469 19.3812 116.819 20.9603L116.749 19.8803L116.749 19.0303L111.609 19.0303L111.679 20.0303C111.799 21.5703 111.849 23.2103 111.849 25.5403L111.849 41.4203L117.359 41.4203L117.359 28.0803C117.345 27.5925 117.413 27.1057 117.559 26.6403C118.099 24.7653 119.789 23.4549 121.739 23.4003C124.309 23.4003 125.609 25.1403 125.609 28.5903L125.609 41.4203L131.159 41.4203L131.159 28.2003C131.159 21.0603 126.749 18.5303 122.969 18.5303L122.959 18.5603Z" id="Фигура" fill="url(#gradient_3)" fill-rule="evenodd" stroke="none" filter="url(#filter_2)" />
      <path d="M132.929 19.8399L129.689 9.91992L131.489 9.91992L133.019 14.7399C133.329 15.7399 133.609 16.6499 133.829 17.4899C134.089 16.5699 134.409 15.6199 134.709 14.7499L136.359 9.91992L138.149 9.91992L134.599 19.8399L132.929 19.8399Z" id="Фигура" fill="url(#gradient_3)" stroke="none" filter="url(#filter_2)" />
      <path d="M137.829 10.1399L134.439 19.6099L133.089 19.6099L129.999 10.1399L131.359 10.1399L132.839 14.8099C133.239 16.0899 133.599 17.2399 133.839 18.3499L133.839 18.3499C134.099 17.2499 134.499 16.0599 134.919 14.8199L136.519 10.1399L137.829 10.1399M138.469 9.68992L136.199 9.68992L136.089 9.99992L134.489 14.6799C134.269 15.3399 134.039 16.0099 133.839 16.6799C133.649 16.0399 133.449 15.3899 133.239 14.6799L131.749 9.98992L131.649 9.66992L129.359 9.66992L129.549 10.2599L132.639 19.7299L132.739 20.0399L134.739 20.0399L134.839 19.7399L138.229 10.2699L138.449 9.66992L138.469 9.68992Z" id="Фигура" fill="url(#gradient_3)" fill-rule="evenodd" stroke="none" filter="url(#filter_2)" />
      <path d="M144.43 19.8399L141.43 15.3299L140.78 16.0899L140.78 19.8399L139.1 19.8399L139.1 9.91992L140.78 9.91992L140.78 14.0799L141.16 13.5699L144.16 9.92992L146.28 9.92992L142.64 14.1899L146.49 19.8499L144.43 19.8399Z" id="Фигура" fill="url(#gradient_3)" stroke="none" filter="url(#filter_2)" />
      <path d="M145.729 10.1404L142.299 14.1404L145.999 19.5904L144.549 19.5904L141.429 14.9404L140.529 15.9404L140.529 19.5504L139.359 19.5504L139.359 10.1404L140.579 10.1404L140.579 14.7104L140.579 14.7104C140.839 14.3404 141.089 14.0104 141.329 13.7104L144.219 10.1504L145.739 10.1504M146.739 9.70043L144.029 9.70043L143.889 9.87043L141.009 13.4104L141.009 9.69043L138.859 9.69043L138.859 20.0804L140.979 20.0804L140.979 16.1704L141.379 15.7004L144.179 19.8604L144.309 20.0604L146.849 20.0604L146.369 19.3604L142.869 14.1904L146.069 10.4404L146.709 9.69043L146.739 9.70043Z" id="Фигура" fill="url(#gradient_3)" fill-rule="evenodd" stroke="none" filter="url(#filter_2)" />
    </g>
    <g id="Live" transform="translate(152.49023 0.140625)">
      <g fill="url(#gradient_5)" stroke="none" id="Live" filter="url(#filter_2)">
        <path d="M3.32422 39.9268L3.32422 14.0195L5.11279 14.0195L5.11279 38.3008L15.501 38.3008L15.501 39.9268L3.32422 39.9268ZM20.7222 16.7656Q20.1802 16.7656 19.7646 16.3682Q19.3491 15.9707 19.3491 15.3564Q19.3491 14.7603 19.7737 14.3899Q20.1982 14.0195 20.7222 14.0195Q21.2822 14.0195 21.7068 14.3809Q22.1313 14.7422 22.1313 15.3564Q22.1313 15.9346 21.7158 16.3501Q21.3003 16.7656 20.7222 16.7656ZM19.9092 39.9268L19.9092 21.4268L21.5713 21.4268L21.5713 39.9268L19.9092 39.9268ZM33.5674 39.9268L32.0498 39.9268L24.8955 21.4268L26.7563 21.4268L32.2666 36.1509Q32.6641 37.2168 32.8267 38.084L32.8989 38.084Q33.1338 36.9458 33.4229 36.2231L39.1138 21.4268L40.9204 21.4268L33.5674 39.9268ZM44.6602 30.749Q44.6602 34.561 46.4216 36.7109Q48.1831 38.8608 51.2544 38.8608Q54.3618 38.8608 57.3247 36.5664L57.3247 38.3369Q54.4521 40.3784 50.9111 40.3784Q47.334 40.3784 45.1299 37.813Q42.9258 35.2476 42.9258 30.5684Q42.9258 26.5215 45.2292 23.7483Q47.5327 20.9751 51.2183 20.9751Q54.6689 20.9751 56.5117 23.396Q58.3545 25.8169 58.3545 30.0083L58.3545 30.749L44.6602 30.749ZM56.6201 29.2314Q56.5117 26.0337 55.0845 24.2632Q53.6572 22.4927 51.146 22.4927Q48.5444 22.4927 46.8372 24.2361Q45.1299 25.9795 44.7324 29.2314L56.6201 29.2314Z" />
      </g>
    </g>
  </g>
</svg>